<svg width="2048" height="2048" viewBox="0 0 2048 2048" fill="none" xmlns="http://www.w3.org/2000/svg">
<g clip-path="url(#clip0_35_15)">
<path d="M0 0C675.84 0 1351.68 0 2048 0C2048 675.84 2048 1351.68 2048 2048C1372.16 2048 696.32 2048 0 2048C0 1372.16 0 696.32 0 0Z" fill="white"/>
<path d="M561 527C562.011 527.277 563.021 527.554 564.063 527.84C583.968 533.709 601.24 546.783 616 561C616.528 561.502 617.056 562.005 617.6 562.522C626.244 570.776 633.893 579.4 641 589C641.417 589.551 641.834 590.102 642.264 590.669C652.867 604.685 661.474 620.066 669.01 635.92C669.683 637.335 670.365 638.746 671.053 640.154C683.443 665.586 690.825 692.577 696.227 720.25C703.666 758.129 719.7 794.26 752.617 816.461C772.027 829.232 793.814 836.934 817 839C818.485 839.164 818.485 839.164 820 839.332C827.221 840.037 834.438 840.101 841.688 840.125C842.65 840.13 843.612 840.134 844.604 840.139C857.606 840.632 857.606 840.632 868.563 834.75C869.581 833.828 870.604 832.911 871.629 831.996C872.169 831.507 872.709 831.019 873.266 830.515C876.387 827.788 879.696 825.311 883 822.813C883.713 822.271 884.426 821.729 885.161 821.171C887.438 819.444 889.719 817.721 892 816C892.8 815.395 893.601 814.789 894.425 814.166C912.307 800.648 930.425 787.549 949 775C949.64 774.566 950.279 774.132 950.939 773.686C955.268 770.753 959.623 767.862 964 765C964.765 764.5 965.531 763.999 966.319 763.483C987.94 749.404 1010.23 736.147 1033 724C1033.59 723.684 1034.19 723.367 1034.8 723.042C1065.05 707.075 1097.23 693.452 1130.56 685.588C1132.8 685.049 1135.02 684.468 1137.23 683.859C1141.13 682.796 1145.05 681.861 1149 681C1149.67 680.849 1150.35 680.698 1151.04 680.543C1185.32 673.26 1223.09 676.82 1256 688C1256.71 688.234 1257.42 688.469 1258.15 688.71C1285.7 697.873 1308.87 715.979 1322.25 741.938C1322.58 742.569 1322.91 743.201 1323.25 743.853C1327.96 753.35 1329.54 762.646 1329.44 773.188C1329.43 774.288 1329.42 775.388 1329.41 776.521C1329.24 784.719 1328.25 791.933 1325.72 799.77C1324.52 803.498 1323.4 807.253 1322.26 811.003C1321.64 813.042 1321.01 815.077 1320.37 817.11C1318.93 821.726 1317.61 826.183 1317 831C1317.52 831.112 1318.05 831.224 1318.59 831.34C1331.73 834.684 1343.96 842.036 1354 851C1354.83 851.686 1355.66 852.372 1356.51 853.078C1371.67 865.968 1382.33 884.218 1384.21 904.205C1385.3 922.149 1380.49 938.192 1375.14 955.113C1371.82 965.663 1368.92 976.335 1366 987C1367.23 987.037 1367.23 987.037 1368.49 987.076C1392.03 987.97 1414.53 999.505 1430.71 1016.31C1443.52 1031.39 1448.44 1050.9 1447.29 1070.3C1445.77 1084.6 1440.28 1098.75 1435.81 1112.34C1433.37 1119.84 1431.2 1127.43 1429 1135C1430 1134.51 1431 1134.02 1432.03 1133.52C1465.81 1117.06 1465.81 1117.06 1480.66 1109.98C1488.28 1106.35 1495.89 1102.68 1503.5 1099C1514.11 1093.87 1524.72 1088.78 1535.35 1083.7C1549.84 1076.78 1564.31 1069.82 1578.77 1062.83C1583.03 1060.78 1587.29 1058.72 1591.55 1056.67C1593.77 1055.59 1596 1054.52 1598.23 1053.44C1610.73 1047.4 1623.28 1041.54 1636 1036C1636 1035.34 1636 1034.68 1636 1034C1637.96 1033.37 1639.92 1032.75 1641.88 1032.13C1642.97 1031.78 1644.06 1031.43 1645.18 1031.07C1669.46 1024.27 1692.96 1027.89 1714.99 1039.59C1737.53 1052.95 1753.84 1077.11 1761 1102C1765.88 1123.53 1760.31 1144.28 1748.83 1162.52C1741.11 1174.07 1732.08 1183.64 1721 1192C1720.08 1192.71 1719.17 1193.41 1718.22 1194.14C1688.23 1216.09 1650.08 1228.95 1616.05 1243.23C1592.39 1253.16 1569.06 1263.71 1546 1275C1545 1275.49 1543.99 1275.98 1542.96 1276.48C1527.98 1283.78 1513.39 1291.6 1499 1300C1498.16 1300.49 1497.32 1300.98 1496.46 1301.48C1473.98 1314.65 1452.23 1328.91 1431 1344C1430.17 1344.59 1429.34 1345.18 1428.48 1345.79C1419 1352.52 1409.74 1359.46 1400.64 1366.7C1397.93 1368.85 1395.18 1370.96 1392.44 1373.06C1391.64 1373.68 1391.64 1373.68 1390.82 1374.3C1389.75 1375.12 1388.68 1375.94 1387.61 1376.77C1384.9 1378.84 1382.2 1380.92 1379.5 1383C1378.42 1383.83 1377.33 1384.67 1376.25 1385.5C1375.71 1385.91 1375.18 1386.32 1374.63 1386.75C1339.69 1413.62 1339.69 1413.62 1304.75 1440.5C1304.21 1440.91 1303.68 1441.32 1303.13 1441.75C1302.04 1442.59 1300.95 1443.42 1299.87 1444.26C1297.21 1446.3 1294.55 1448.35 1291.89 1450.39C1290.31 1451.61 1288.73 1452.83 1287.15 1454.04C1284.06 1456.41 1280.99 1458.79 1277.93 1461.2C1269.54 1467.77 1261.1 1473.79 1251.79 1479C1250.08 1479.96 1248.38 1480.95 1246.68 1481.94C1228.12 1492.41 1207.18 1500.44 1186.63 1506C1185.68 1506.26 1184.74 1506.51 1183.77 1506.77C1174.71 1509.18 1165.57 1510.95 1156.33 1512.58C1154.28 1512.95 1152.23 1513.37 1150.18 1513.8C1078.84 1528.74 996.04 1518.08 934 1479C912.753 1464.99 894.916 1447.09 877.018 1429.15C874.479 1426.6 871.935 1424.07 869.391 1421.53C867.75 1419.89 866.109 1418.24 864.469 1416.6C863.721 1415.86 862.973 1415.11 862.202 1414.34C858.14 1410.26 854.252 1406.09 850.493 1401.73C848.803 1399.77 847.059 1397.88 845.281 1396C844.659 1395.34 844.036 1394.68 843.395 1394C842.769 1393.34 842.144 1392.68 841.5 1392C834.559 1384.67 827.928 1377.11 821.375 1369.44C817.626 1365.05 813.863 1360.68 810.08 1356.33C801.214 1346.12 792.422 1335.91 784.125 1325.23C781.009 1321.24 777.794 1317.35 774.5 1313.5C769.273 1307.39 764.3 1301.1 759.366 1294.75C758.024 1293.03 756.674 1291.31 755.32 1289.6C748.731 1281.26 742.254 1272.83 735.813 1264.38C733.869 1261.83 731.919 1259.28 729.969 1256.74C723.33 1248.08 716.741 1239.4 710.457 1230.47C708.711 1227.99 706.934 1225.54 705.137 1223.09C683.807 1194.04 664.793 1163.6 649.047 1131.15C647.909 1128.81 646.751 1126.49 645.594 1124.17C623.404 1079.19 607.326 1031.33 591 984C590.747 983.267 590.494 982.533 590.233 981.778C589.494 979.634 588.755 977.491 588.016 975.348C587.783 974.672 587.55 973.996 587.31 973.3C586.239 970.193 585.171 967.085 584.106 963.976C582.373 958.924 580.603 953.897 578.704 948.904C577.095 944.55 575.695 940.122 574.25 935.711C572.826 931.395 571.325 927.124 569.71 922.876C568.643 920.056 567.635 917.216 566.625 914.375C566.191 913.158 565.756 911.941 565.309 910.688C564.481 908.357 563.66 906.024 562.848 903.688C560.079 895.781 557.024 888.024 553.878 880.261C551.706 874.867 549.75 869.453 547.99 863.909C547.012 861.035 545.897 858.273 544.707 855.48C542.446 850.107 540.309 844.696 538.208 839.258C531.273 821.33 523.613 803.767 515.538 786.324C514.005 783.011 512.481 779.695 510.957 776.379C498.712 749.383 498.712 749.383 484.438 723.438C480 715.913 480 715.913 480 713C479.01 713 478.02 713 477 713C476.459 711.885 475.917 710.77 475.359 709.621C473.324 705.549 471.085 701.624 468.788 697.695C449.661 664.953 435.513 627.588 443.188 589C444.866 582.747 447.223 576.841 450 571C450.407 570.098 450.815 569.195 451.234 568.266C460.852 548.692 480.244 535.364 500.313 528.188C520.559 521.951 540.685 520.717 561 527Z" fill="#FF385C"/>
<path d="M462 556C462.33 556.66 462.66 557.32 463 558C461.951 560.609 460.681 563.076 459.422 565.59C455.717 574.475 454.471 582.783 454.563 592.375C454.571 593.507 454.579 594.639 454.588 595.805C455.23 628.357 469.388 655.178 485.306 682.776C505.601 718.056 523.66 754.734 540 792C540.343 792.781 540.686 793.562 541.04 794.367C553.019 821.654 564.257 849.204 575 877C575.478 878.236 575.478 878.236 575.965 879.497C582.996 897.705 589.874 915.971 596.707 934.254C627.247 1016.77 627.247 1016.77 663.457 1096.89C664.93 1099.86 666.377 1102.84 667.816 1105.82C674.528 1119.62 682.112 1132.83 690 1146C690.972 1147.64 691.943 1149.28 692.914 1150.92C698.648 1160.52 704.864 1169.68 711.398 1178.76C713.667 1181.93 715.891 1185.14 718.117 1188.35C725.552 1199.04 733.216 1209.56 741 1220C741.437 1220.59 741.874 1221.17 742.324 1221.78C757.845 1242.65 774.059 1262.97 790.48 1283.13C791.793 1284.75 793.104 1286.36 794.414 1287.98C799.037 1293.67 803.769 1299.25 808.557 1304.8C811.621 1308.36 814.616 1311.97 817.563 1315.62C821.663 1320.68 826.016 1325.45 830.438 1330.22C833.101 1333.11 835.692 1336.05 838.266 1339.02C841.039 1342.19 843.868 1345.31 846.691 1348.44C848.181 1350.09 849.668 1351.75 851.152 1353.4C862.964 1366.62 862.964 1366.62 875.336 1379.3C876.931 1380.93 878.392 1382.61 879.859 1384.35C884.845 1390.08 890.248 1395.4 895.624 1400.75C897.434 1402.56 899.238 1404.37 901.041 1406.18C906.346 1411.49 911.646 1416.73 917.365 1421.6C919.791 1423.68 922.067 1425.91 924.375 1428.12C968.9 1469.36 1031.28 1485.16 1090.56 1485.31C1091.35 1485.32 1092.14 1485.32 1092.95 1485.32C1103.75 1485.35 1114.31 1484.62 1125.03 1483.25C1127.77 1482.9 1130.52 1482.58 1133.26 1482.25C1152.49 1479.84 1170.48 1475.71 1189 1470C1189.91 1469.72 1190.82 1469.44 1191.76 1469.16C1223.32 1459.41 1252.26 1444.86 1278.19 1424.42C1280.92 1422.28 1283.66 1420.15 1286.4 1418.02C1291.76 1413.86 1297.11 1409.7 1302.45 1405.52C1311.07 1398.78 1319.77 1392.15 1328.54 1385.61C1334.1 1381.45 1339.6 1377.22 1345.06 1372.94C1353.45 1366.37 1362.01 1360.04 1370.61 1353.75C1373.79 1351.42 1376.96 1349.09 1380.13 1346.75C1381.71 1345.58 1383.3 1344.41 1384.88 1343.25C1388.8 1340.36 1392.71 1337.47 1396.61 1334.57C1424.41 1313.9 1453.2 1294.67 1483 1277C1483.98 1276.42 1484.97 1275.83 1485.98 1275.23C1542.37 1241.85 1602.11 1215.89 1663.05 1192.05C1663.81 1191.75 1664.57 1191.45 1665.36 1191.14C1668.8 1189.8 1672.25 1188.46 1675.7 1187.13C1698.05 1178.47 1718.55 1166.66 1729 1144C1732.79 1134.01 1735.18 1124.45 1735.13 1113.75C1735.13 1112.94 1735.13 1112.13 1735.14 1111.3C1735.1 1091.05 1727.99 1073.53 1715 1058C1713.92 1056.51 1713.92 1056.51 1712.81 1055C1702.8 1043.3 1685.21 1034.53 1670 1033C1666.35 1032.87 1662.71 1032.86 1659.06 1032.88C1657.64 1032.87 1657.64 1032.87 1656.18 1032.86C1650.69 1032.87 1645.43 1033.19 1640 1034C1646.46 1027.54 1660.96 1027.58 1669.56 1027.56C1695.04 1027.92 1716.52 1037.31 1734.47 1055.4C1752.42 1074.2 1762.54 1097.53 1762.2 1123.41C1761.57 1146.61 1748.16 1167.06 1732 1183C1728.47 1186.19 1724.8 1189.13 1721 1192C1720.08 1192.71 1719.17 1193.41 1718.22 1194.14C1688.23 1216.09 1650.08 1228.95 1616.05 1243.23C1592.39 1253.16 1569.06 1263.71 1546 1275C1545 1275.49 1543.99 1275.98 1542.96 1276.48C1527.98 1283.78 1513.39 1291.6 1499 1300C1498.16 1300.49 1497.32 1300.98 1496.46 1301.48C1473.98 1314.65 1452.23 1328.91 1431 1344C1430.17 1344.59 1429.34 1345.18 1428.48 1345.79C1419 1352.52 1409.74 1359.46 1400.64 1366.7C1397.93 1368.85 1395.18 1370.96 1392.44 1373.06C1391.64 1373.68 1391.64 1373.68 1390.82 1374.3C1389.75 1375.12 1388.68 1375.94 1387.61 1376.77C1384.9 1378.84 1382.2 1380.92 1379.5 1383C1378.42 1383.83 1377.33 1384.67 1376.25 1385.5C1375.71 1385.91 1375.18 1386.32 1374.63 1386.75C1339.69 1413.62 1339.69 1413.62 1304.75 1440.5C1304.21 1440.91 1303.68 1441.32 1303.13 1441.75C1302.04 1442.59 1300.95 1443.42 1299.87 1444.26C1297.21 1446.3 1294.55 1448.35 1291.89 1450.39C1290.31 1451.61 1288.73 1452.83 1287.15 1454.04C1284.06 1456.41 1280.99 1458.79 1277.93 1461.2C1269.54 1467.77 1261.1 1473.79 1251.79 1479C1250.08 1479.96 1248.38 1480.95 1246.68 1481.94C1228.12 1492.41 1207.18 1500.44 1186.63 1506C1185.68 1506.26 1184.74 1506.51 1183.77 1506.77C1174.71 1509.18 1165.57 1510.95 1156.33 1512.58C1154.28 1512.95 1152.23 1513.37 1150.18 1513.8C1078.84 1528.74 996.04 1518.08 934 1479C912.753 1464.99 894.916 1447.09 877.018 1429.15C874.479 1426.6 871.935 1424.07 869.391 1421.53C867.75 1419.89 866.109 1418.24 864.469 1416.6C863.721 1415.86 862.973 1415.11 862.202 1414.34C858.141 1410.26 854.252 1406.09 850.493 1401.73C848.803 1399.77 847.059 1397.88 845.281 1396C844.659 1395.34 844.036 1394.68 843.395 1394C842.769 1393.34 842.144 1392.68 841.5 1392C834.559 1384.67 827.928 1377.11 821.375 1369.44C817.626 1365.05 813.863 1360.68 810.08 1356.33C801.214 1346.12 792.422 1335.91 784.125 1325.23C781.009 1321.24 777.794 1317.35 774.5 1313.5C769.273 1307.39 764.3 1301.1 759.366 1294.75C758.024 1293.03 756.674 1291.31 755.32 1289.6C748.731 1281.26 742.254 1272.83 735.813 1264.38C733.869 1261.83 731.919 1259.28 729.969 1256.74C723.33 1248.08 716.741 1239.4 710.457 1230.47C708.711 1227.99 706.934 1225.54 705.137 1223.09C683.807 1194.04 664.793 1163.6 649.047 1131.15C647.909 1128.81 646.751 1126.49 645.594 1124.17C623.404 1079.19 607.327 1031.33 591 984C590.747 983.267 590.494 982.533 590.233 981.778C589.494 979.634 588.755 977.491 588.016 975.348C587.783 974.672 587.55 973.996 587.31 973.3C586.239 970.193 585.171 967.085 584.106 963.976C582.373 958.924 580.603 953.897 578.704 948.904C577.095 944.55 575.695 940.122 574.25 935.711C572.826 931.395 571.325 927.124 569.71 922.876C568.643 920.056 567.635 917.216 566.625 914.375C566.191 913.158 565.756 911.941 565.309 910.688C564.482 908.357 563.66 906.024 562.848 903.688C560.079 895.781 557.024 888.024 553.879 880.261C551.707 874.867 549.751 869.453 547.99 863.909C547.012 861.035 545.897 858.273 544.707 855.48C542.446 850.107 540.309 844.696 538.208 839.258C531.273 821.33 523.613 803.767 515.538 786.323C514.005 783.011 512.481 779.695 510.957 776.379C498.745 749.574 498.745 749.574 484.602 723.766C482.8 720.655 481.21 717.477 479.625 714.25C477.097 709.104 474.408 704.102 471.563 699.125C461.439 681.303 452.917 662.987 448 643C447.701 641.889 447.402 640.778 447.094 639.633C440.968 613.257 443.66 585.279 457.785 562.066C459.145 560.005 460.532 557.985 462 556Z" fill="#173401"/>
<path d="M1316 829C1316.33 829.66 1316.66 830.32 1317 831C1318.78 831.589 1318.78 831.589 1321 832.062C1333.23 835.541 1344.58 842.593 1354 851C1355.24 852.029 1355.24 852.029 1356.51 853.078C1371.08 865.469 1381.56 882.858 1384 902C1384.39 908.005 1384.25 913.993 1384 920C1383.67 920 1383.34 920 1383 920C1382.95 918.961 1382.9 917.922 1382.85 916.852C1381.89 898.105 1376.9 883.128 1367 867C1367.19 867.762 1367.39 868.524 1367.59 869.309C1368.13 871.466 1368.67 873.625 1369.2 875.785C1369.66 877.632 1370.13 879.476 1370.64 881.309C1375.48 899.718 1368.07 918.132 1362.83 935.664C1361.68 939.514 1360.53 943.366 1359.39 947.217C1358.8 949.211 1358.21 951.205 1357.61 953.199C1354.69 963.02 1351.81 972.852 1348.94 982.688C1348.45 984.364 1347.96 986.04 1347.47 987.716C1345.17 995.581 1342.87 1003.45 1340.58 1011.31C1339.5 1015.01 1338.42 1018.7 1337.34 1022.4C1336.83 1024.14 1336.33 1025.88 1335.82 1027.62C1325.55 1062.9 1315.01 1092.03 1280.98 1110.83C1275.55 1113.79 1270.07 1116.66 1264.57 1119.52C1259.67 1122.08 1254.91 1124.81 1250.19 1127.69C1247.12 1129.52 1243.97 1131.07 1240.75 1132.62C1233.37 1136.24 1226.17 1140.14 1218.97 1144.09C1210.25 1148.88 1201.48 1153.58 1192.7 1158.27C1186.74 1161.45 1180.79 1164.65 1174.86 1167.89C1173.71 1168.52 1172.55 1169.15 1171.37 1169.79C1169.2 1170.97 1167.04 1172.16 1164.88 1173.35C1149.24 1181.85 1135.16 1186.22 1117.38 1186.38C1116.34 1186.39 1115.3 1186.4 1114.23 1186.42C1090.72 1186.27 1071.23 1174.11 1055 1158C1048.62 1151.23 1048.62 1151.23 1047 1148C1046.01 1148 1045.02 1148 1044 1148C1043.05 1145 1042.12 1141.99 1041.22 1138.97C1040.43 1136.34 1039.56 1133.76 1038.62 1131.18C1032.31 1112.84 1032.07 1090.21 1039 1072C1039.67 1070 1040.34 1068 1041 1066C1042.18 1066.41 1043.35 1066.82 1044.56 1067.25C1046.37 1067.84 1048.19 1068.42 1050 1069C1051.07 1069.36 1052.13 1069.72 1053.23 1070.09C1078.26 1077.77 1100.52 1070.31 1122.94 1058.44C1124.12 1057.82 1125.31 1057.19 1126.49 1056.57C1135.48 1051.85 1144.4 1047.01 1153.29 1042.12C1159.75 1038.58 1166.25 1035.1 1172.75 1031.62C1175.14 1030.35 1177.53 1029.07 1179.91 1027.79C1180.8 1027.32 1180.8 1027.32 1181.71 1026.83C1188.92 1022.97 1196.13 1019.1 1203.33 1015.21C1208.82 1012.24 1214.33 1009.29 1219.84 1006.36C1258.66 985.813 1258.66 985.813 1281.3 949.248C1282.43 945.388 1283.49 941.518 1284.5 937.625C1285.02 935.7 1285.53 933.775 1286.05 931.85C1286.42 930.497 1286.78 929.142 1287.15 927.788C1289.62 918.609 1292.33 909.498 1295.01 900.379C1296.04 896.856 1297.07 893.332 1298.11 889.808C1299.94 883.524 1301.79 877.241 1303.63 870.958C1304.57 867.727 1305.52 864.496 1306.47 861.265C1307.39 858.116 1308.31 854.968 1309.23 851.82C1309.74 850.108 1309.74 850.108 1310.25 848.36C1312.14 841.9 1314.06 835.446 1316 829Z" fill="#FF385C"/>
<path d="M1313 735C1316.64 738.188 1318.6 741.718 1320.56 746.062C1320.87 746.726 1321.17 747.389 1321.48 748.072C1326.02 758.239 1328.12 768.416 1328.25 779.562C1328.28 780.822 1328.3 782.081 1328.33 783.379C1327.91 794.35 1324.22 805.126 1321.04 815.554C1319.83 819.531 1318.64 823.514 1317.45 827.496C1317.18 828.376 1316.92 829.256 1316.64 830.163C1313.16 841.759 1309.77 853.38 1306.37 864.999C1305.28 868.714 1304.19 872.428 1303.1 876.142C1301.73 880.842 1300.35 885.542 1298.98 890.243C1297.68 894.669 1296.38 899.095 1295.08 903.519C1292.52 912.253 1289.96 920.983 1287.63 929.781C1280.17 957.842 1271.12 977.696 1245.21 993.188C1244.56 993.577 1243.91 993.966 1243.23 994.368C1236.48 998.371 1229.56 1002.05 1222.6 1005.68C1218.86 1007.64 1215.13 1009.6 1211.39 1011.57C1210.66 1011.96 1209.93 1012.34 1209.17 1012.74C1203.29 1015.84 1197.45 1018.99 1191.62 1022.19C1182.34 1027.28 1173.02 1032.29 1163.68 1037.28C1162.49 1037.92 1161.3 1038.56 1160.11 1039.2C1159.52 1039.51 1158.92 1039.83 1158.32 1040.15C1153.15 1042.92 1148 1045.7 1142.84 1048.48C1138.58 1050.78 1134.31 1053.07 1130.05 1055.36C1128.03 1056.45 1126.02 1057.53 1124.01 1058.61C1121.2 1060.12 1118.38 1061.63 1115.56 1063.12C1114.35 1063.78 1114.35 1063.78 1113.11 1064.45C1094.34 1074.37 1073.71 1077.42 1053.23 1071.16C1049.02 1069.65 1045.01 1067.97 1041 1066C1040.73 1067.24 1040.46 1068.48 1040.19 1069.75C1039.61 1072.4 1038.99 1075.02 1038.25 1077.63C1036 1085.62 1035.42 1093.16 1035.44 1101.44C1035.44 1102.74 1035.44 1104.05 1035.44 1105.39C1035.65 1118 1038.36 1129.27 1043.2 1140.87C1046.01 1148.34 1040.14 1158.28 1037.13 1164.93C1025.44 1190.03 1008.11 1213.18 986 1230C985.08 1230.74 984.159 1231.47 983.211 1232.23C975.287 1238.44 966.906 1243.37 958 1248C957.328 1248.35 956.657 1248.7 955.965 1249.06C944.398 1254.98 932.401 1259.17 920 1263C918.995 1263.33 918.995 1263.33 917.97 1263.67C914.519 1264.77 912.442 1265.04 909 1264C911.29 1262.46 913.581 1260.91 915.875 1259.38C916.562 1258.91 917.248 1258.45 917.956 1257.98C921.66 1255.51 925.382 1253.15 929.25 1250.94C939.576 1244.84 948.306 1236.19 957 1228C958.174 1226.91 958.174 1226.91 959.371 1225.79C965.986 1219.44 971.504 1212.32 977 1205C977.435 1204.43 977.87 1203.85 978.318 1203.26C985.078 1194.29 990.731 1184.91 996 1175C996.343 1174.37 996.685 1173.74 997.039 1173.09C1011.38 1146.58 1019.74 1116 1022 1086C1022.16 1084.16 1022.16 1084.16 1022.33 1082.29C1024.4 1064.85 1024.4 1064.85 1018.97 1049.06C1015.9 1045.84 1012.45 1043.17 1008.87 1040.53C1005.96 1038.15 1003.97 1035.33 1001.94 1032.19C1000.92 1030.62 1000.92 1030.62 999.879 1029.02C999.259 1028.03 998.639 1027.03 998 1026C997.37 1025.02 996.739 1024.05 996.09 1023.04C992.969 1018.08 992.969 1018.08 992 1016C992.33 1015.34 992.66 1014.68 993 1014C993.666 1014.76 994.333 1015.52 995.02 1016.31C1007.27 1030.12 1021.29 1041.12 1039 1047C1039.8 1047.3 1040.61 1047.6 1041.44 1047.9C1060.94 1054.05 1082.75 1050.4 1100.69 1041.44C1102.71 1040.38 1104.72 1039.31 1106.73 1038.22C1109.25 1036.87 1111.79 1035.55 1114.34 1034.24C1124.76 1028.87 1135.09 1023.36 1145.36 1017.72C1152.4 1013.86 1159.46 1010.07 1166.54 1006.29C1176.01 1001.24 1185.44 996.132 1194.77 990.832C1201.04 987.276 1207.34 983.822 1213.78 980.609C1240.83 967.01 1260.63 950.081 1271 921C1273.97 911.908 1276.56 902.695 1279.19 893.5C1279.93 890.914 1280.68 888.329 1281.43 885.745C1282.93 880.583 1284.42 875.419 1285.91 870.255C1288.54 861.133 1291.2 852.024 1293.88 842.916C1295.08 838.813 1296.28 834.709 1297.48 830.605C1297.7 829.855 1297.92 829.105 1298.15 828.333C1299.46 823.844 1300.77 819.354 1302.08 814.863C1302.38 813.811 1302.69 812.758 1303.01 811.674C1303.57 809.74 1304.13 807.806 1304.69 805.871C1305.98 801.425 1307.31 796.991 1308.68 792.57C1314.78 772.986 1316.23 755.311 1313 735Z" fill="#173501"/>
<path d="M1366 866C1373.01 872.327 1376.64 881.866 1379.27 890.699C1379.79 892.94 1379.79 892.94 1381 894C1386.58 914.68 1381.81 934.846 1375.35 954.62C1373.39 960.637 1371.69 966.697 1370.06 972.812C1368.07 980.298 1365.89 987.693 1363.5 995.062C1361.01 1002.76 1358.67 1010.48 1356.48 1018.27C1354.9 1023.86 1353.29 1029.43 1351.65 1035C1351.44 1035.71 1351.23 1036.42 1351.01 1037.15C1350.15 1040.09 1349.28 1043.02 1348.41 1045.96C1345.88 1054.51 1343.41 1063.08 1341.06 1071.68C1333.89 1097.93 1323.04 1115.56 1299 1129.56C1288.91 1135.27 1278.66 1140.68 1268.44 1146.15C1262.96 1149.09 1257.48 1152.05 1252 1155C1249.83 1156.17 1247.67 1157.33 1245.5 1158.5C1243.89 1159.37 1243.89 1159.37 1242.25 1160.25C1232.5 1165.5 1232.5 1165.5 1229.25 1167.25C1227.09 1168.42 1224.92 1169.58 1222.76 1170.75C1217.29 1173.69 1211.83 1176.63 1206.36 1179.57C1205.27 1180.16 1204.17 1180.75 1203.04 1181.35C1200.86 1182.53 1198.68 1183.7 1196.5 1184.87C1191.3 1187.66 1186.12 1190.48 1180.97 1193.37C1171.21 1198.83 1161.83 1203.94 1151 1207C1149.79 1207.36 1148.58 1207.72 1147.34 1208.09C1126.75 1213.11 1105.76 1207.5 1088 1197C1073.63 1187.85 1061.99 1175.36 1053 1161C1052.05 1159.53 1052.05 1159.53 1051.09 1158.04C1047.97 1153.07 1047.97 1153.07 1047 1151C1047.33 1150.34 1047.66 1149.68 1048 1149C1048.69 1149.77 1049.38 1150.55 1050.09 1151.34C1065.09 1168.04 1084.08 1183.57 1107.59 1185.18C1137.19 1185.83 1156.44 1177.44 1182.01 1163.3C1188.56 1159.68 1195.15 1156.15 1201.75 1152.62C1204.14 1151.35 1206.52 1150.07 1208.91 1148.8C1209.5 1148.48 1210.09 1148.16 1210.7 1147.84C1226.23 1139.53 1241.75 1131.18 1257.23 1122.75C1262.07 1120.11 1266.93 1117.51 1271.83 1114.98C1294.32 1103.25 1313.61 1088.3 1323.43 1064.23C1323.88 1063.13 1323.88 1063.13 1324.33 1062.02C1327.42 1054.26 1329.71 1046.33 1331.91 1038.29C1333.17 1033.69 1334.47 1029.1 1335.76 1024.52C1336.02 1023.57 1336.29 1022.62 1336.56 1021.64C1339.44 1011.37 1342.46 1001.16 1345.5 990.938C1346.59 987.28 1347.67 983.622 1348.75 979.965C1349.02 979.063 1349.29 978.16 1349.56 977.231C1353.03 965.53 1356.45 953.814 1359.87 942.097C1360.33 940.523 1360.79 938.949 1361.25 937.375C1361.47 936.615 1361.69 935.854 1361.92 935.071C1363.14 930.901 1364.38 926.738 1365.65 922.582C1366.06 921.231 1366.06 921.231 1366.47 919.852C1367 918.124 1367.53 916.397 1368.06 914.671C1372.74 899.278 1370.98 886.203 1367 871C1366.65 869.337 1366.31 867.671 1366 866Z" fill="#173501"/>
<path d="M1433 1021C1442.68 1029.39 1446.39 1046.19 1447.45 1058.43C1448.45 1077.06 1441.54 1094.89 1435.81 1112.34C1433.92 1118.16 1432.21 1124.03 1430.49 1129.9C1428.74 1135.9 1426.96 1141.89 1425.19 1147.88C1424.68 1149.59 1424.68 1149.59 1424.16 1151.34C1422.75 1156.09 1421.35 1160.83 1419.94 1165.58C1419.24 1167.94 1418.54 1170.3 1417.84 1172.66C1417.16 1174.95 1416.48 1177.24 1415.8 1179.53C1414.35 1184.43 1412.9 1189.34 1411.47 1194.25C1411.25 1195.02 1411.02 1195.8 1410.79 1196.61C1410.21 1198.6 1409.63 1200.6 1409.05 1202.6C1401.34 1227.53 1385.88 1241.63 1363.38 1253.69C1362.1 1254.38 1360.83 1255.07 1359.56 1255.76C1356.33 1257.52 1353.1 1259.26 1349.86 1261C1346.97 1262.56 1344.07 1264.12 1341.18 1265.69C1336.88 1268.01 1332.58 1270.32 1328.28 1272.63C1322.09 1275.95 1315.92 1279.28 1309.75 1282.62C1308.77 1283.16 1307.78 1283.69 1306.77 1284.24C1300.96 1287.39 1295.16 1290.55 1289.36 1293.72C1286.62 1295.22 1283.87 1296.71 1281.12 1298.21C1277.87 1299.97 1274.64 1301.76 1271.41 1303.57C1253.55 1313.52 1235.65 1318.55 1215 1314.3C1211.86 1313.41 1208.98 1312.33 1206 1311C1205.02 1310.59 1204.03 1310.18 1203.02 1309.75C1184.36 1301.24 1166.67 1284.27 1159 1265C1159.5 1264.01 1159.5 1264.01 1160 1263C1160.45 1263.62 1160.9 1264.23 1161.36 1264.87C1170.2 1276.51 1180.9 1283.93 1194 1290C1194.96 1290.46 1195.91 1290.92 1196.9 1291.39C1212.02 1297.29 1232.62 1296.22 1247.5 1290.08C1261.92 1283.58 1275.65 1275.7 1289.37 1267.86C1296.94 1263.55 1304.63 1259.51 1312.38 1255.52C1320.15 1251.5 1327.76 1247.22 1335.35 1242.87C1342.22 1238.95 1349.2 1235.29 1356.25 1231.69C1364.03 1227.69 1371.32 1223.7 1378 1218C1378.63 1217.49 1379.27 1216.98 1379.92 1216.45C1389.96 1207.52 1394.57 1193.75 1398.5 1181.31C1399 1179.78 1399.5 1178.24 1400 1176.71C1401.69 1171.48 1403.35 1166.24 1405 1161C1405.31 1160 1405.63 1159.01 1405.95 1157.98C1409.39 1147.09 1412.81 1136.2 1416.21 1125.3C1419.64 1114.3 1423.12 1103.33 1426.69 1092.38C1429.96 1082.3 1433.16 1072.21 1436 1062C1436.18 1061.36 1436.35 1060.73 1436.54 1060.07C1439.4 1047.23 1436.59 1033.37 1433 1021Z" fill="#183602"/>
<path d="M1145 755C1145 758.039 1144.54 759.459 1143.39 762.211C1143.05 763.037 1142.71 763.863 1142.36 764.714C1141.99 765.592 1141.63 766.47 1141.25 767.375C1133.57 786.251 1129.63 804.195 1129.31 824.5C1129.28 826.017 1129.24 827.534 1129.21 829.051C1129.13 832.7 1129.06 836.35 1129 840C1128.32 840.265 1127.64 840.53 1126.93 840.803C1069.5 863.293 1011.33 896.446 985.551 955.309C983.351 961.073 982.003 966.918 981 973C980.67 973 980.34 973 980 973C979.52 959.654 979.719 947.737 984 935C984.313 934.056 984.313 934.056 984.633 933.092C993.708 906.411 1015.25 883.909 1038 868C1038.57 867.598 1039.14 867.195 1039.72 866.781C1087.72 833 1087.72 833 1107 833C1107.09 831.113 1107.09 831.113 1107.19 829.188C1109.84 803.801 1122.72 773.532 1142.56 756.812C1143.37 756.214 1144.17 755.616 1145 755Z" fill="#183602"/>
</g>
<defs>
<clipPath id="clip0_35_15">
<rect width="2048" height="2048" fill="white"/>
</clipPath>
</defs>
</svg>
