<svg width="768" height="768" viewBox="0 0 768 768" fill="none" xmlns="http://www.w3.org/2000/svg">
<g clip-path="url(#clip0_35_24)">
<path d="M0 0C253.44 0 506.88 0 768 0C768 253.44 768 506.88 768 768C514.56 768 261.12 768 0 768C0 514.56 0 261.12 0 0Z" fill="white"/>
<path d="M210.375 197.625C210.754 197.728 211.133 197.832 211.523 197.939C218.988 200.14 225.465 205.043 231 210.375C231.198 210.563 231.396 210.751 231.6 210.945C234.841 214.04 237.71 217.275 240.375 220.875C240.531 221.081 240.688 221.288 240.849 221.501C244.825 226.756 248.053 232.524 250.879 238.47C251.131 239 251.387 239.529 251.645 240.057C256.291 249.594 259.059 259.716 261.085 270.093C263.875 284.298 269.887 297.847 282.231 306.172C289.51 310.961 297.68 313.85 306.375 314.625C306.932 314.686 306.932 314.686 307.5 314.749C310.208 315.013 312.914 315.037 315.633 315.046C315.994 315.048 316.354 315.05 316.726 315.052C321.602 315.237 321.602 315.237 325.711 313.031C326.093 312.685 326.476 312.341 326.861 311.998C327.063 311.815 327.266 311.632 327.475 311.443C328.645 310.42 329.886 309.491 331.125 308.554C331.392 308.351 331.66 308.148 331.935 307.939C332.789 307.291 333.644 306.645 334.5 306C334.8 305.773 335.1 305.545 335.409 305.312C342.115 300.242 348.909 295.33 355.875 290.625C356.115 290.462 356.355 290.299 356.602 290.132C358.225 289.032 359.859 287.948 361.5 286.875C361.787 286.687 362.074 286.499 362.37 286.306C370.477 281.026 378.837 276.055 387.375 271.5C387.597 271.381 387.819 271.262 388.048 271.14C399.393 265.153 411.462 260.044 423.96 257.095C424.799 256.893 425.631 256.675 426.463 256.447C427.925 256.048 429.394 255.697 430.875 255.375C431.128 255.318 431.38 255.261 431.64 255.203C444.496 252.472 458.659 253.807 471 258C471.267 258.087 471.533 258.175 471.808 258.266C482.137 261.702 490.828 268.492 495.844 278.226C495.967 278.463 496.091 278.7 496.218 278.944C497.984 282.506 498.578 285.992 498.539 289.945C498.536 290.357 498.533 290.77 498.53 291.195C498.466 294.269 498.094 296.975 497.145 299.913C496.694 301.311 496.275 302.72 495.849 304.126C495.616 304.89 495.38 305.653 495.14 306.416C494.599 308.147 494.103 309.818 493.875 311.625C494.072 311.667 494.268 311.709 494.471 311.752C499.397 313.006 503.984 315.763 507.75 319.125C508.06 319.382 508.371 319.639 508.69 319.904C514.376 324.738 518.374 331.581 519.078 339.076C519.487 345.805 517.684 351.822 515.678 358.167C514.433 362.123 513.346 366.125 512.25 370.125C512.713 370.139 512.713 370.139 513.185 370.153C522.01 370.488 530.448 374.814 536.518 381.115C541.321 386.772 543.164 394.087 542.732 401.363C542.164 406.724 540.103 412.029 538.428 417.125C537.512 419.939 536.701 422.784 535.875 425.625C536.25 425.442 536.625 425.259 537.012 425.07C549.678 418.897 549.677 418.897 555.247 416.243C558.107 414.88 560.96 413.503 563.812 412.125C567.789 410.202 571.771 408.291 575.757 406.387C581.19 403.791 586.617 401.182 592.039 398.562C593.635 397.791 595.233 397.02 596.83 396.249C597.666 395.846 598.501 395.443 599.337 395.039C604.023 392.776 608.729 390.578 613.5 388.5C613.5 388.252 613.5 388.005 613.5 387.75C614.234 387.513 614.968 387.279 615.703 387.046C616.112 386.916 616.521 386.785 616.942 386.651C626.049 384.1 634.861 385.456 643.122 389.846C651.575 394.856 657.688 403.915 660.375 413.25C662.204 421.322 660.117 429.106 655.81 435.943C652.915 440.275 649.529 443.863 645.375 447C645.031 447.264 644.688 447.528 644.333 447.801C633.084 456.034 618.781 460.856 606.02 466.21C597.145 469.936 588.396 473.892 579.75 478.125C579.374 478.308 578.997 478.491 578.609 478.679C572.993 481.416 567.521 484.35 562.125 487.5C561.81 487.683 561.495 487.867 561.171 488.056C552.741 492.992 544.587 498.342 536.625 504C536.313 504.221 536.001 504.442 535.68 504.669C532.125 507.193 528.651 509.796 525.241 512.512C524.223 513.318 523.194 514.108 522.164 514.898C521.864 515.128 521.864 515.128 521.559 515.363C521.157 515.671 520.755 515.979 520.353 516.287C519.339 517.065 518.326 517.845 517.312 518.625C516.906 518.937 516.5 519.25 516.094 519.562C515.893 519.717 515.692 519.871 515.484 520.031C502.383 530.109 502.383 530.109 489.281 540.187C489.08 540.342 488.879 540.496 488.672 540.655C488.265 540.969 487.857 541.282 487.45 541.596C486.453 542.363 485.456 543.13 484.459 543.897C483.867 544.353 483.275 544.809 482.682 545.263C481.523 546.152 480.371 547.047 479.224 547.951C476.078 550.415 472.911 552.671 469.421 554.623C468.778 554.984 468.141 555.355 467.505 555.728C460.544 559.652 452.694 562.663 444.984 564.75C444.631 564.845 444.278 564.941 443.915 565.04C440.515 565.941 437.087 566.606 433.625 567.215C432.854 567.356 432.086 567.515 431.319 567.676C404.565 573.275 373.515 569.279 350.25 554.625C342.282 549.37 335.593 542.659 328.882 535.93C327.93 534.976 326.976 534.024 326.021 533.072C325.406 532.457 324.791 531.841 324.176 531.225C323.895 530.945 323.615 530.666 323.326 530.377C321.803 528.848 320.344 527.283 318.935 525.648C318.301 524.914 317.647 524.203 316.98 523.5C316.747 523.252 316.513 523.005 316.273 522.75C316.038 522.502 315.804 522.255 315.562 522C312.96 519.252 310.473 516.416 308.016 513.539C306.61 511.895 305.199 510.255 303.78 508.623C300.455 504.796 297.158 500.964 294.047 496.961C292.878 495.463 291.673 494.005 290.437 492.562C288.477 490.27 286.612 487.913 284.762 485.532C284.259 484.886 283.753 484.243 283.245 483.6C280.774 480.472 278.345 477.312 275.93 474.141C275.201 473.185 274.47 472.231 273.738 471.278C271.249 468.028 268.778 464.773 266.421 461.425C265.767 460.496 265.1 459.576 264.426 458.66C256.428 447.763 249.297 436.35 243.393 424.18C242.966 423.305 242.532 422.434 242.098 421.562C233.776 404.695 227.747 386.749 221.625 369C221.53 368.725 221.435 368.449 221.337 368.166C221.06 367.362 220.783 366.559 220.506 365.755C220.418 365.502 220.331 365.248 220.241 364.987C219.84 363.822 219.439 362.657 219.04 361.491C218.39 359.596 217.726 357.711 217.014 355.839C216.41 354.206 215.886 352.545 215.344 350.891C214.81 349.273 214.247 347.671 213.641 346.078C213.241 345.021 212.863 343.955 212.484 342.89C212.321 342.434 212.159 341.977 211.991 341.507C211.68 340.633 211.373 339.758 211.068 338.882C210.029 335.917 208.884 333.009 207.704 330.097C206.89 328.075 206.156 326.044 205.496 323.965C205.129 322.888 204.711 321.852 204.265 320.805C203.417 318.79 202.616 316.76 201.828 314.721C199.227 307.998 196.355 301.412 193.327 294.871C192.752 293.629 192.18 292.385 191.609 291.142C187.017 281.018 187.017 281.018 181.664 271.289C180 268.467 180 268.467 180 267.375C179.629 267.375 179.257 267.375 178.875 267.375C178.672 266.956 178.469 266.538 178.26 266.107C177.496 264.58 176.657 263.109 175.795 261.635C168.623 249.357 163.317 235.345 166.195 220.875C166.825 218.53 167.709 216.315 168.75 214.125C168.903 213.786 169.055 213.448 169.213 213.099C172.819 205.759 180.091 200.761 187.617 198.07C195.21 195.731 202.757 195.268 210.375 197.625Z" fill="#FF385C"/>
<path d="M173.25 208.5C173.374 208.748 173.498 208.995 173.625 209.25C173.232 210.228 172.755 211.154 172.283 212.096C170.894 215.428 170.426 218.544 170.461 222.141C170.464 222.565 170.467 222.99 170.47 223.427C170.711 235.634 176.02 245.692 181.99 256.041C189.6 269.271 196.373 283.025 202.5 297C202.629 297.293 202.757 297.586 202.89 297.888C207.382 308.12 211.597 318.451 215.625 328.875C215.804 329.338 215.804 329.338 215.987 329.811C218.624 336.639 221.203 343.489 223.765 350.345C235.218 381.287 235.218 381.287 248.796 411.335C249.349 412.447 249.891 413.563 250.431 414.681C252.948 419.859 255.792 424.813 258.75 429.75C259.114 430.365 259.479 430.979 259.843 431.594C261.993 435.196 264.324 438.631 266.774 442.034C267.625 443.225 268.459 444.428 269.294 445.63C272.082 449.641 274.956 453.584 277.875 457.5C278.039 457.72 278.203 457.941 278.371 458.168C284.192 465.993 290.272 473.613 296.43 481.174C296.923 481.78 297.414 482.386 297.905 482.993C299.639 485.126 301.413 487.22 303.209 489.302C304.358 490.637 305.481 491.988 306.586 493.359C308.124 495.254 309.756 497.045 311.414 498.833C312.413 499.916 313.384 501.018 314.35 502.131C315.39 503.321 316.45 504.492 317.509 505.666C318.068 506.285 318.626 506.905 319.182 507.526C323.611 512.482 323.611 512.482 328.251 517.239C328.849 517.849 329.397 518.479 329.947 519.132C331.817 521.28 333.843 523.274 335.859 525.283C336.538 525.959 337.214 526.638 337.89 527.317C339.88 529.307 341.867 531.274 344.012 533.099C344.922 533.879 345.775 534.718 346.641 535.547C363.338 551.009 386.729 556.934 408.961 556.992C409.256 556.994 409.551 556.995 409.855 556.996C413.907 557.006 417.867 556.734 421.885 556.22C422.914 556.088 423.944 555.968 424.973 555.845C432.184 554.941 438.929 553.39 445.875 551.25C446.217 551.146 446.558 551.041 446.911 550.933C458.744 547.278 469.599 541.824 479.322 534.158C480.345 533.354 481.374 532.557 482.402 531.759C484.41 530.199 486.416 528.637 488.419 527.07C491.652 524.543 494.912 522.057 498.201 519.603C500.287 518.044 502.349 516.458 504.398 514.852C507.545 512.389 510.753 510.014 513.978 507.656C515.17 506.784 516.359 505.908 517.547 505.031C518.142 504.593 518.737 504.155 519.331 503.717C520.8 502.636 522.266 501.553 523.729 500.464C534.153 492.713 544.951 485.5 556.125 478.875C556.494 478.656 556.862 478.437 557.242 478.211C578.389 465.693 600.792 455.96 623.643 447.018C623.928 446.906 624.214 446.794 624.508 446.679C625.8 446.173 627.093 445.671 628.389 445.175C636.77 441.928 644.456 437.497 648.375 429C649.796 425.253 650.691 421.67 650.672 417.656C650.673 417.353 650.675 417.05 650.676 416.738C650.664 409.143 647.997 402.575 643.125 396.75C642.719 396.193 642.719 396.193 642.305 395.625C638.549 391.237 631.954 387.948 626.25 387.375C624.882 387.325 623.517 387.323 622.148 387.328C621.614 387.326 621.614 387.326 621.068 387.324C619.01 387.327 617.036 387.447 615 387.75C617.421 385.329 622.86 385.344 626.086 385.336C635.638 385.472 643.696 388.99 650.427 395.774C657.157 402.827 660.953 411.574 660.826 421.279C660.587 429.981 655.56 437.647 649.5 443.625C648.175 444.822 646.8 445.924 645.375 447C645.031 447.264 644.688 447.529 644.334 447.801C633.085 456.035 618.781 460.857 606.02 466.211C597.145 469.937 588.396 473.892 579.75 478.125C579.374 478.308 578.997 478.491 578.609 478.68C572.993 481.416 567.521 484.351 562.125 487.5C561.81 487.684 561.495 487.867 561.171 488.056C552.741 492.993 544.587 498.343 536.625 504C536.313 504.221 536.001 504.442 535.68 504.67C532.125 507.194 528.651 509.797 525.241 512.513C524.223 513.318 523.194 514.109 522.164 514.898C521.864 515.128 521.864 515.128 521.559 515.363C521.157 515.671 520.755 515.979 520.353 516.287C519.339 517.065 518.326 517.845 517.313 518.625C516.906 518.938 516.5 519.25 516.094 519.562C515.893 519.717 515.692 519.872 515.484 520.031C502.383 530.109 502.383 530.109 489.281 540.188C489.08 540.342 488.879 540.497 488.672 540.656C488.265 540.969 487.857 541.283 487.45 541.596C486.453 542.363 485.456 543.13 484.459 543.898C483.867 544.354 483.275 544.809 482.682 545.264C481.523 546.152 480.371 547.048 479.224 547.951C476.078 550.416 472.911 552.671 469.421 554.623C468.778 554.984 468.141 555.356 467.505 555.728C460.544 559.652 452.694 562.663 444.984 564.75C444.631 564.846 444.279 564.942 443.915 565.04C440.515 565.941 437.087 566.607 433.625 567.216C432.854 567.356 432.086 567.515 431.319 567.677C404.565 573.276 373.515 569.28 350.25 554.625C342.282 549.371 335.593 542.659 328.882 535.93C327.93 534.976 326.976 534.025 326.022 533.073C325.406 532.457 324.791 531.841 324.176 531.226C323.895 530.946 323.615 530.666 323.326 530.378C321.803 528.848 320.345 527.283 318.935 525.648C318.301 524.915 317.647 524.204 316.981 523.5C316.747 523.252 316.514 523.005 316.273 522.75C316.039 522.502 315.804 522.255 315.563 522C312.96 519.252 310.473 516.417 308.016 513.539C306.61 511.895 305.199 510.256 303.78 508.623C300.455 504.796 297.158 500.965 294.047 496.961C292.878 495.464 291.673 494.005 290.438 492.562C288.478 490.271 286.613 487.913 284.762 485.532C284.259 484.887 283.753 484.243 283.245 483.601C280.774 480.472 278.345 477.313 275.93 474.141C275.201 473.186 274.47 472.232 273.738 471.278C271.249 468.029 268.778 464.773 266.421 461.426C265.767 460.496 265.1 459.576 264.426 458.66C256.428 447.764 249.298 436.35 243.393 424.18C242.966 423.305 242.532 422.434 242.098 421.563C233.777 404.696 227.747 386.749 221.625 369C221.53 368.725 221.435 368.45 221.337 368.167C221.06 367.363 220.783 366.559 220.506 365.755C220.419 365.502 220.331 365.249 220.241 364.988C219.84 363.822 219.439 362.657 219.04 361.491C218.39 359.596 217.726 357.711 217.014 355.839C216.41 354.206 215.886 352.546 215.344 350.892C214.81 349.273 214.247 347.672 213.641 346.078C213.241 345.021 212.863 343.956 212.484 342.891C212.322 342.434 212.159 341.978 211.991 341.508C211.681 340.634 211.373 339.759 211.068 338.883C210.029 335.918 208.884 333.009 207.704 330.098C206.89 328.075 206.156 326.045 205.496 323.966C205.129 322.888 204.711 321.852 204.265 320.805C203.417 318.79 202.616 316.761 201.828 314.722C199.227 307.999 196.355 301.413 193.327 294.871C192.752 293.629 192.18 292.386 191.609 291.142C187.029 281.09 187.029 281.09 181.726 271.412C181.05 270.245 180.454 269.054 179.859 267.844C178.911 265.914 177.903 264.038 176.836 262.172C173.039 255.489 169.844 248.62 168 241.125C167.888 240.708 167.776 240.292 167.66 239.862C165.363 229.971 166.373 219.48 171.669 210.775C172.18 210.002 172.699 209.244 173.25 208.5Z" fill="#173401"/>
<path d="M493.5 310.875C493.624 311.123 493.747 311.37 493.875 311.625C494.541 311.846 494.541 311.846 495.375 312.023C499.96 313.328 504.219 315.973 507.75 319.125C508.215 319.511 508.215 319.511 508.69 319.904C514.156 324.551 518.086 331.072 519 338.25C519.145 340.502 519.094 342.747 519 345C518.876 345 518.752 345 518.625 345C518.607 344.61 518.588 344.221 518.569 343.819C518.207 336.789 516.337 331.173 512.625 325.125C512.697 325.411 512.77 325.696 512.845 325.991C513.049 326.8 513.25 327.609 513.45 328.419C513.622 329.112 513.8 329.803 513.992 330.491C515.806 337.394 513.027 344.299 511.061 350.874C510.629 352.318 510.201 353.762 509.772 355.206C509.549 355.954 509.327 356.702 509.105 357.449C508.01 361.132 506.929 364.82 505.852 368.508C505.668 369.136 505.484 369.765 505.3 370.394C504.437 373.343 503.576 376.293 502.716 379.243C502.312 380.628 501.907 382.014 501.503 383.399C501.312 384.052 501.122 384.704 500.932 385.357C497.081 398.586 493.129 409.511 480.368 416.56C478.33 417.671 476.275 418.748 474.215 419.82C472.375 420.78 470.593 421.802 468.822 422.885C467.67 423.572 466.49 424.151 465.281 424.734C462.516 426.091 459.814 427.551 457.114 429.033C453.843 430.829 450.555 432.594 447.263 434.351C445.028 435.545 442.796 436.745 440.572 437.959C440.14 438.194 439.708 438.429 439.262 438.672C438.45 439.114 437.639 439.558 436.828 440.004C430.963 443.193 425.685 444.833 419.016 444.891C418.627 444.896 418.238 444.901 417.838 444.906C409.019 444.853 401.71 440.292 395.625 434.25C393.231 431.712 393.231 431.712 392.625 430.5C392.254 430.5 391.882 430.5 391.5 430.5C391.144 429.374 390.796 428.246 390.458 427.115C390.162 426.128 389.835 425.161 389.483 424.194C387.116 417.317 387.027 408.827 389.625 402C389.877 401.251 390.127 400.501 390.375 399.75C390.816 399.905 391.257 400.059 391.711 400.219C392.39 400.439 393.07 400.658 393.75 400.875C394.15 401.01 394.55 401.145 394.963 401.284C404.348 404.163 412.697 401.367 421.102 396.914C421.546 396.681 421.99 396.448 422.435 396.215C425.805 394.445 429.149 392.628 432.485 390.795C434.908 389.466 437.344 388.162 439.781 386.859C440.677 386.38 441.572 385.901 442.468 385.422C442.8 385.244 442.8 385.244 443.14 385.063C445.846 383.615 448.548 382.161 451.248 380.703C453.309 379.591 455.373 378.484 457.441 377.386C471.998 369.68 471.998 369.68 480.487 355.968C480.912 354.521 481.308 353.069 481.687 351.609C481.881 350.887 482.075 350.166 482.27 349.444C482.407 348.936 482.544 348.428 482.68 347.92C483.607 344.478 484.623 341.062 485.628 337.642C486.016 336.321 486.403 335 486.79 333.678C487.479 331.322 488.169 328.966 488.86 326.609C489.215 325.398 489.57 324.186 489.925 322.974C490.271 321.794 490.617 320.613 490.963 319.433C491.151 318.79 491.151 318.79 491.343 318.135C492.053 315.712 492.771 313.292 493.5 310.875Z" fill="#FF385C"/>
<path d="M492.375 275.625C493.738 276.821 494.476 278.144 495.211 279.773C495.325 280.022 495.439 280.271 495.556 280.527C497.257 284.34 498.043 288.156 498.094 292.336C498.103 292.808 498.113 293.28 498.123 293.767C497.964 297.881 496.584 301.922 495.392 305.833C494.937 307.324 494.49 308.818 494.042 310.311C493.943 310.641 493.843 310.971 493.741 311.311C492.436 315.66 491.163 320.017 489.887 324.375C489.48 325.768 489.072 327.16 488.664 328.553C488.147 330.316 487.632 332.078 487.116 333.841C486.631 335.501 486.144 337.16 485.656 338.82C484.695 342.095 483.737 345.369 482.861 348.668C480.064 359.191 476.669 366.636 466.953 372.445C466.709 372.591 466.465 372.737 466.213 372.888C463.679 374.389 461.084 375.769 458.474 377.132C457.072 377.864 455.673 378.602 454.273 379.339C453.998 379.484 453.723 379.628 453.44 379.777C451.235 380.938 449.043 382.121 446.859 383.32C443.378 385.23 439.881 387.11 436.379 388.982C435.933 389.221 435.486 389.459 435.04 389.698C434.818 389.817 434.597 389.935 434.369 390.057C432.432 391.093 430.499 392.136 428.566 393.18C426.968 394.042 425.368 394.903 423.768 395.762C423.012 396.167 422.257 396.573 421.503 396.98C420.449 397.547 419.393 398.11 418.336 398.672C417.881 398.918 417.881 398.918 417.416 399.169C410.379 402.889 402.642 404.031 394.963 401.684C393.383 401.119 391.881 400.49 390.375 399.75C390.274 400.214 390.174 400.678 390.07 401.156C389.854 402.152 389.623 403.132 389.343 404.111C388.5 407.107 388.284 409.935 388.289 413.039C388.289 413.528 388.289 414.017 388.289 414.521C388.369 419.251 389.383 423.478 391.2 427.827C392.253 430.627 390.051 434.354 388.923 436.849C384.54 446.261 378.042 454.942 369.75 461.25C369.405 461.526 369.06 461.802 368.704 462.086C365.733 464.413 362.59 466.264 359.25 468C358.998 468.131 358.746 468.262 358.487 468.397C354.149 470.619 349.65 472.19 345 473.625C344.623 473.75 344.623 473.75 344.239 473.877C342.945 474.289 342.166 474.391 340.875 474C341.734 473.421 342.593 472.843 343.453 472.266C343.711 472.093 343.968 471.92 344.234 471.742C345.623 470.816 347.018 469.93 348.469 469.102C352.341 466.814 355.615 463.572 358.875 460.5C359.315 460.09 359.315 460.09 359.764 459.672C362.245 457.289 364.314 454.619 366.375 451.875C366.538 451.66 366.701 451.444 366.869 451.223C369.404 447.857 371.524 444.343 373.5 440.625C373.629 440.388 373.757 440.152 373.889 439.908C379.269 429.967 382.403 418.499 383.25 407.25C383.311 406.562 383.311 406.562 383.373 405.86C384.15 399.319 384.15 399.319 382.113 393.398C380.962 392.188 379.667 391.19 378.327 390.198C377.234 389.306 376.489 388.247 375.727 387.07C375.344 386.483 375.344 386.483 374.955 385.884C374.722 385.51 374.49 385.135 374.25 384.75C374.014 384.384 373.777 384.017 373.534 383.64C372.363 381.779 372.363 381.779 372 381C372.124 380.752 372.247 380.505 372.375 380.25C372.625 380.536 372.875 380.821 373.132 381.116C377.726 386.295 382.983 390.422 389.625 392.625C389.927 392.737 390.228 392.848 390.539 392.963C397.854 395.271 406.03 393.901 412.758 390.539C413.516 390.143 414.27 389.74 415.023 389.333C415.969 388.824 416.922 388.331 417.877 387.839C421.783 385.825 425.659 383.759 429.512 381.644C432.149 380.198 434.799 378.776 437.453 377.359C441.004 375.464 444.54 373.55 448.04 371.562C450.389 370.229 452.751 368.933 455.168 367.729C465.309 362.629 472.736 356.28 476.625 345.375C477.74 341.966 478.708 338.511 479.695 335.062C479.975 334.093 480.256 333.124 480.537 332.154C481.098 330.219 481.657 328.282 482.215 326.346C483.201 322.925 484.202 319.509 485.205 316.093C485.656 314.555 486.107 313.016 486.557 311.477C486.639 311.196 486.721 310.915 486.806 310.625C487.298 308.941 487.789 307.258 488.279 305.574C488.394 305.179 488.509 304.784 488.627 304.378C488.838 303.652 489.049 302.927 489.259 302.202C489.743 300.534 490.239 298.872 490.756 297.214C493.041 289.87 493.585 283.242 492.375 275.625Z" fill="#173501"/>
<path d="M512.25 324.75C514.878 327.123 516.239 330.7 517.228 334.012C517.42 334.853 517.42 334.853 517.875 335.25C519.968 343.005 518.178 350.567 515.757 357.983C515.021 360.239 514.382 362.511 513.773 364.805C513.025 367.612 512.207 370.385 511.312 373.148C510.378 376.035 509.501 378.931 508.679 381.852C508.089 383.947 507.485 386.037 506.868 388.125C506.79 388.391 506.711 388.656 506.631 388.93C506.305 390.032 505.979 391.134 505.653 392.236C504.704 395.443 503.778 398.653 502.898 401.88C500.209 411.723 496.14 418.334 487.125 423.586C483.343 425.727 479.496 427.755 475.666 429.807C473.609 430.911 471.555 432.018 469.5 433.125C468.688 433.563 467.875 434 467.062 434.438C466.459 434.762 466.459 434.762 465.844 435.094C462.188 437.062 462.188 437.062 460.968 437.719C460.157 438.156 459.346 438.593 458.535 439.03C456.485 440.133 454.435 441.237 452.385 442.339C451.974 442.56 451.564 442.78 451.141 443.008C450.323 443.448 449.505 443.887 448.686 444.327C446.736 445.374 444.793 446.431 442.863 447.514C439.202 449.563 435.685 451.478 431.625 452.625C431.172 452.76 430.719 452.896 430.252 453.035C422.532 454.916 414.661 452.814 408 448.875C402.612 445.444 398.246 440.761 394.875 435.375C394.52 434.825 394.52 434.825 394.157 434.263C392.987 432.401 392.987 432.401 392.625 431.625C392.749 431.377 392.872 431.13 393 430.875C393.259 431.165 393.517 431.455 393.784 431.754C399.41 438.016 406.529 443.839 415.347 444.441C426.446 444.687 433.664 441.539 443.254 436.236C445.71 434.88 448.182 433.556 450.656 432.234C451.551 431.756 452.445 431.277 453.34 430.799C453.561 430.68 453.783 430.562 454.011 430.44C459.837 427.323 465.658 424.194 471.46 421.033C473.276 420.043 475.098 419.066 476.936 418.116C485.369 413.717 492.604 408.114 496.286 399.086C496.454 398.675 496.454 398.675 496.625 398.256C497.781 395.349 498.641 392.372 499.467 389.357C499.94 387.634 500.426 385.914 500.909 384.193C501.009 383.837 501.108 383.481 501.211 383.114C502.29 379.265 503.424 375.433 504.562 371.602C504.969 370.23 505.376 368.858 505.783 367.487C505.883 367.148 505.983 366.81 506.087 366.462C507.387 362.074 508.669 357.68 509.95 353.287C510.123 352.696 510.295 352.106 510.467 351.516C510.55 351.23 510.634 350.945 510.719 350.652C511.177 349.088 511.642 347.527 512.117 345.968C512.271 345.462 512.271 345.462 512.428 344.945C512.625 344.297 512.823 343.649 513.023 343.002C514.779 337.229 514.118 332.326 512.625 326.625C512.494 326.001 512.366 325.377 512.25 324.75Z" fill="#173501"/>
<path d="M537.375 382.875C541.006 386.02 542.396 392.322 542.793 396.911C543.169 403.896 540.579 410.584 538.428 417.126C537.72 419.309 537.078 421.51 536.435 423.713C535.778 425.961 535.111 428.207 534.445 430.453C534.255 431.097 534.255 431.097 534.06 431.753C533.532 433.533 533.005 435.313 532.477 437.093C532.215 437.977 531.952 438.862 531.69 439.747C531.435 440.606 531.181 441.465 530.926 442.324C530.381 444.162 529.837 446.001 529.302 447.842C529.217 448.134 529.132 448.426 529.045 448.727C528.827 449.476 528.61 450.226 528.394 450.976C525.504 460.324 519.705 465.611 511.266 470.133C510.789 470.392 510.312 470.651 509.836 470.91C508.625 471.568 507.413 472.222 506.199 472.874C505.112 473.459 504.027 474.046 502.941 474.633C501.33 475.503 499.717 476.37 498.104 477.236C495.785 478.48 493.47 479.731 491.156 480.984C490.788 481.184 490.419 481.384 490.039 481.589C487.861 482.77 485.685 483.956 483.511 485.145C482.482 485.707 481.451 486.268 480.42 486.828C479.202 487.49 477.988 488.161 476.779 488.84C470.081 492.569 463.37 494.455 455.624 492.863C454.446 492.527 453.367 492.124 452.25 491.625C451.881 491.47 451.511 491.316 451.131 491.156C444.135 487.966 437.502 481.602 434.625 474.375C434.811 474.004 434.811 474.004 435 473.625C435.169 473.857 435.337 474.088 435.511 474.327C438.826 478.691 442.837 481.476 447.75 483.75C448.109 483.922 448.467 484.093 448.837 484.27C454.509 486.485 462.232 486.082 467.814 483.781C473.222 481.341 478.37 478.388 483.515 475.446C486.354 473.83 489.237 472.315 492.141 470.82C495.055 469.311 497.909 467.708 500.756 466.075C503.333 464.605 505.951 463.232 508.594 461.883C511.511 460.383 514.243 458.888 516.75 456.75C516.987 456.558 517.225 456.366 517.469 456.168C521.235 452.819 522.965 447.655 524.438 442.992C524.624 442.417 524.811 441.841 524.998 441.266C525.634 439.306 526.255 437.341 526.875 435.375C526.993 435.001 527.111 434.627 527.233 434.242C528.522 430.16 529.804 426.075 531.079 421.988C532.365 417.864 533.672 413.748 535.008 409.641C536.236 405.861 537.435 402.079 538.5 398.25C538.567 398.011 538.633 397.773 538.702 397.527C539.777 392.71 538.721 387.515 537.375 382.875Z" fill="#183602"/>
<path d="M429.375 283.125C429.375 284.265 429.204 284.797 428.771 285.829C428.644 286.139 428.516 286.449 428.384 286.768C428.247 287.097 428.11 287.426 427.969 287.766C425.09 294.844 423.61 301.573 423.492 309.188C423.48 309.756 423.467 310.325 423.453 310.894C423.422 312.263 423.397 313.631 423.375 315C423.119 315.099 422.864 315.199 422.6 315.301C401.061 323.735 379.25 336.167 369.581 358.241C368.757 360.403 368.251 362.594 367.875 364.875C367.751 364.875 367.627 364.875 367.5 364.875C367.32 359.87 367.394 355.402 369 350.625C369.117 350.271 369.117 350.271 369.237 349.91C372.64 339.904 380.72 331.466 389.25 325.5C389.463 325.349 389.676 325.198 389.896 325.043C407.894 312.375 407.894 312.375 415.125 312.375C415.16 311.667 415.16 311.667 415.195 310.945C416.189 301.425 421.021 290.075 428.461 283.805C428.762 283.58 429.064 283.356 429.375 283.125Z" fill="#183602"/>
</g>
<defs>
<clipPath id="clip0_35_24">
<rect width="768" height="768" fill="white"/>
</clipPath>
</defs>
</svg>
